# xmcd CD database file
#
# Track frame offsets:
#	150
#	21674
#	36963
#	52054
#	66250
#	83401
#	95857
#	114482
#	128538
#	144525
#	169335
#	182594
#	196269
#	207566
#	241187
#	258173
#	273889
#
# Disc length: 3782 seconds
#
# Revision: 2
# Processed by: cddbd v1.5.2PL0 Copyright (c) Steve Scherf et al.
# Submitted via: CDex 1.51
#
DISCID=f60ec411
DTITLE=林子祥 - 2007精選100首DISC3
DYEAR=2007
DGENRE=Pop
TTITLE0=三人行
TTITLE1=澤田研二
TTITLE2=究竟天有幾高
TTITLE3=再生人
TTITLE4=夜來香
TTITLE5=活色生香
TTITLE6=沙漠小子
TTITLE7=狂歡
TTITLE8=海市蜃樓
TTITLE9=古都羅馬
TTITLE10=投降吧
TTITLE11=今天開始
TTITLE12=浪
TTITLE13=愛情隧道
TTITLE14=幾段情歌
TTITLE15=從今失去她
TTITLE16=二人世界
EXTD=林子祥 YEAR: 2007
EXTT0=
EXTT1=
EXTT2=
EXTT3=
EXTT4=
EXTT5=
EXTT6=
EXTT7=
EXTT8=
EXTT9=
EXTT10=
EXTT11=
EXTT12=
EXTT13=
EXTT14=
EXTT15=
EXTT16=
PLAYORDER=
